<svg width="100" height="100" viewBox="0 0 100 100" fill="none" xmlns="http://www.w3.org/2000/svg">
<mask id="mask0_1490_379" style="mask-type:luminance" maskUnits="userSpaceOnUse" x="0" y="0" width="100" height="100">
<path d="M99 99V0.999992H1V99H99Z" fill="white" stroke="white" stroke-width="2"/>
</mask>
<g mask="url(#mask0_1490_379)">
<path d="M61.6268 85.9141C68.943 83.5707 75.3727 78.7566 79.754 72.3383C83.27 67.1875 85.3422 61.0615 85.3422 54.8031C85.3422 41.2957 75.1581 28.5982 67.536 18.2191C65.6901 15.7055 63.8403 13.1883 62.146 10.5119C61.7795 9.9334 60.8905 10.1318 60.8063 10.8115C60.6108 12.3873 60.4155 13.9629 60.22 15.5387C55.5422 9.54726 51.834 3.95059 50.4264 1.77403C50.1393 1.32988 49.4893 1.32988 49.2022 1.77403C47.7946 3.95059 44.0864 9.54726 39.4086 15.5387C39.2133 13.9629 39.0178 12.3873 38.8223 10.8115C38.7381 10.1318 37.8493 9.9334 37.4829 10.5119C35.7883 13.1883 33.9385 15.7055 32.0926 18.2191C30.8051 19.9723 29.4448 21.7914 28.0725 23.6695L24.1787 29.2087" stroke="#E6E7D7" stroke-width="2" stroke-miterlimit="10" stroke-linecap="round" stroke-linejoin="round"/>
<path d="M24.1254 29.2603C18.8336 37.1129 14.2864 45.7771 14.2864 54.8031C14.2866 68.5519 24.1409 80.9357 36.8403 85.5469C37.193 85.675 37.5469 85.7971 37.9014 85.9131" stroke="#E6E7D7" stroke-width="2" stroke-miterlimit="10" stroke-linecap="round" stroke-linejoin="round"/>
<path d="M65.1562 52.5142C67.3066 52.5142 69.0498 50.771 69.0498 48.6206V42.9677C69.0498 40.8175 67.3066 39.0741 65.1562 39.0741C63.0059 39.0741 61.2627 40.8175 61.2627 42.9677V48.6206C61.2627 50.771 63.0059 52.5142 65.1562 52.5142Z" stroke="#E6E7D7" stroke-width="2" stroke-miterlimit="10" stroke-linecap="round" stroke-linejoin="round"/>
<path d="M57.3694 52.5142C59.5198 52.5142 61.2629 50.771 61.2629 48.6206V41.0145C61.2629 38.8642 59.5198 37.121 57.3694 37.121C55.219 37.121 53.4758 38.8642 53.4758 41.0145V48.6206C53.4758 50.771 55.219 52.5142 57.3694 52.5142Z" stroke="#E6E7D7" stroke-width="2" stroke-miterlimit="10" stroke-linecap="round" stroke-linejoin="round"/>
<path d="M49.5823 52.5142C51.7325 52.5142 53.4758 50.771 53.4758 48.6206V37.1206C53.4758 34.9702 51.7325 33.227 49.5823 33.227C47.4319 33.227 45.6887 34.9702 45.6887 37.1206V47.1872" stroke="#E6E7D7" stroke-width="2" stroke-miterlimit="10" stroke-linecap="round" stroke-linejoin="round"/>
<path d="M45.689 46.8255V37.1208C45.689 34.9705 43.9456 33.2273 41.7952 33.2273C39.6452 33.2273 37.9019 34.9705 37.9019 37.1208V47.1872" stroke="#E6E7D7" stroke-width="2" stroke-miterlimit="10" stroke-linecap="round" stroke-linejoin="round"/>
<path d="M61.0144 81.4319H37.9019" stroke="#E6E7D7" stroke-width="2" stroke-miterlimit="10" stroke-linecap="round" stroke-linejoin="round"/>
<path d="M86.1173 5.01537C85.0546 7.57084 81.9593 14.0261 76.8318 16.833C76.5232 17.0021 76.5232 17.4497 76.8318 17.6189C81.9593 20.4257 85.0546 26.881 86.1173 29.4365C86.2718 29.808 86.7966 29.808 86.9511 29.4365C88.0138 26.881 91.1091 20.4257 96.2365 17.6189C96.5453 17.4497 96.5453 17.0021 96.2365 16.833C91.1091 14.0261 88.0138 7.57084 86.9511 5.01537C86.7966 4.64389 86.2718 4.64389 86.1173 5.01537Z" stroke="#E6E7D7" stroke-width="2" stroke-miterlimit="10" stroke-linecap="round" stroke-linejoin="round"/>
<path d="M11.4939 74.8768C10.6047 77.0147 8.01523 82.4151 3.72578 84.7634C3.46738 84.9048 3.46738 85.2794 3.72578 85.4208C8.01523 87.769 10.6047 93.1694 11.4939 95.3073C11.623 95.6183 12.0621 95.6183 12.1914 95.3073C13.0805 93.1694 15.6699 87.769 19.9596 85.4208C20.2178 85.2794 20.2178 84.9048 19.9596 84.7634C15.6699 82.4151 13.0805 77.0147 12.1914 74.8768C12.0621 74.5661 11.623 74.5661 11.4939 74.8768Z" stroke="#E6E7D7" stroke-width="2" stroke-miterlimit="10" stroke-linecap="round" stroke-linejoin="round"/>
<path d="M69.0497 42.4971V62.8365C69.0497 65.4015 68.0622 67.8681 66.2923 69.7246L63.0528 73.1222C61.7476 74.4275 61.0142 76.198 61.0142 78.0441V88.4097V96.3545" stroke="#E6E7D7" stroke-width="2" stroke-miterlimit="10" stroke-linecap="round" stroke-linejoin="round"/>
<path d="M42.6171 64.1277C43.0261 58.3005 39.8292 54.9095 39.8292 54.9095H45.2185C47.3509 54.9095 49.0798 53.1808 49.0798 51.0484C49.0798 48.916 47.3509 47.1873 45.2185 47.1873H38.9386C34.3216 47.1873 30.5786 50.9302 30.5786 55.5472V65.108C30.5786 67.2128 31.4956 69.2134 33.0899 70.5878L35.8187 72.888C37.1396 74.0013 37.9017 75.6408 37.9017 77.3681V98.5593H61.0142V95.1744" stroke="#E6E7D7" stroke-width="2" stroke-miterlimit="10" stroke-linecap="round" stroke-linejoin="round"/>
</g>
</svg>
